<svg width="679" height="390" viewBox="0 0 679 390" fill="none" xmlns="http://www.w3.org/2000/svg">
<rect id="Rectangle 14" x="112" y="19" width="503" height="59" fill="#363636"/>
<rect id="Rectangle 15" x="112" y="37" width="503" height="8" fill="#C4C4C4"/>
<path id="Rectangle 5" d="M49 341.055C49 324.465 62.465 311.025 79.055 311.055L648.055 312.098C664.602 312.128 678 325.551 678 342.098V359C678 375.569 664.569 389 648 389H79C62.4314 389 49 375.569 49 359V341.055Z" fill="#FF4040"/>
<g id="Rectangle 4">
<path d="M65.0309 164.658C66.9959 144.346 81.6556 129 99.0941 129H628.126C647.059 129 662.407 146.992 662.407 169.186V334.814C662.407 357.063 646.986 375.077 628.007 375L83.1667 372.784C62.7513 372.701 46.9221 351.849 49.2225 328.07L65.0309 164.658Z" fill="#FF4040"/>
<path d="M661.969 164.658C660.004 144.346 645.344 129 627.906 129H98.8744C79.9412 129 64.5929 146.992 64.5929 169.186V334.814C64.5929 357.063 80.0138 375.077 98.9933 375L643.833 372.784C664.249 372.701 680.078 351.849 677.778 328.07L661.969 164.658Z" fill="#FF4040"/>
</g>
<g id="Rectangle 3">
<path d="M95.4763 163.265C97.2507 147.165 110.489 135 126.236 135H603.962C621.059 135 634.919 149.262 634.919 166.855V298.145C634.919 315.781 620.994 330.061 603.855 330L111.853 328.243C93.4177 328.177 79.1236 311.649 81.2009 292.799L95.4763 163.265Z" fill="#363636"/>
<path d="M634.524 163.265C632.749 147.165 619.511 135 603.764 135H126.038C108.941 135 95.0807 149.262 95.0807 166.855V298.145C95.0807 315.781 109.006 330.061 126.145 330L618.147 328.243C636.582 328.177 650.876 311.649 648.799 292.799L634.524 163.265Z" fill="#363636"/>
</g>
<g id="QWERTY">
<g id="Backspace">
<g id="Rectangle 2">
<path d="M584.113 177.366C584.113 173.5 587.247 170.366 591.113 170.366H608.048C611.914 170.366 615.048 173.5 615.048 177.366V182.7C615.048 186.566 611.914 189.7 608.048 189.7H591.113C587.247 189.7 584.113 186.566 584.113 182.7V177.366Z" fill="#BABABA"/>
<path d="M584.113 175.779C584.113 172.79 586.268 170.366 588.925 170.366H610.236C612.893 170.366 615.048 172.79 615.048 175.779V184.286C615.048 187.276 612.893 189.7 610.236 189.7H588.925C586.268 189.7 584.113 187.276 584.113 184.286V175.779Z" fill="#BABABA"/>
</g>
<g id="Rectangle 1">
<path d="M584.113 167.312C584.113 163.446 587.247 160.312 591.113 160.312H608.048C611.914 160.312 615.048 163.446 615.048 167.312V172.646C615.048 176.512 611.914 179.646 608.048 179.646H591.113C587.247 179.646 584.113 176.512 584.113 172.646V167.312Z" fill="#CDCDCD"/>
<path d="M584.113 165.726C584.113 162.736 586.268 160.312 588.925 160.312H610.236C612.893 160.312 615.048 162.736 615.048 165.726V174.233C615.048 177.222 612.893 179.646 610.236 179.646H588.925C586.268 179.646 584.113 177.222 584.113 174.233V165.726Z" fill="#CDCDCD"/>
</g>
</g>
<g id="BracketRight">
<g id="Rectangle 2_2">
<path d="M545.445 177.366C545.445 173.5 548.579 170.366 552.445 170.366H569.38C573.246 170.366 576.38 173.5 576.38 177.366V182.7C576.38 186.566 573.246 189.7 569.38 189.7H552.445C548.579 189.7 545.445 186.566 545.445 182.7V177.366Z" fill="#BABABA"/>
<path d="M545.445 175.779C545.445 172.79 547.6 170.366 550.257 170.366H571.568C574.225 170.366 576.38 172.79 576.38 175.779V184.286C576.38 187.276 574.225 189.7 571.568 189.7H550.257C547.6 189.7 545.445 187.276 545.445 184.286V175.779Z" fill="#BABABA"/>
</g>
<g id="Rectangle 1_2">
<path d="M545.445 167.312C545.445 163.446 548.579 160.312 552.445 160.312H569.38C573.246 160.312 576.38 163.446 576.38 167.312V172.646C576.38 176.512 573.246 179.646 569.38 179.646H552.445C548.579 179.646 545.445 176.512 545.445 172.646V167.312Z" fill="#CDCDCD"/>
<path d="M545.445 165.726C545.445 162.736 547.6 160.312 550.257 160.312H571.568C574.225 160.312 576.38 162.736 576.38 165.726V174.233C576.38 177.222 574.225 179.646 571.568 179.646H550.257C547.6 179.646 545.445 177.222 545.445 174.233V165.726Z" fill="#CDCDCD"/>
</g>
</g>
<g id="BracketLeft">
<g id="Rectangle 2_3">
<path d="M506.777 177.366C506.777 173.5 509.911 170.366 513.777 170.366H530.712C534.578 170.366 537.712 173.5 537.712 177.366V182.7C537.712 186.566 534.578 189.7 530.712 189.7H513.777C509.911 189.7 506.777 186.566 506.777 182.7V177.366Z" fill="#BABABA"/>
<path d="M506.777 175.779C506.777 172.79 508.932 170.366 511.589 170.366H532.9C535.557 170.366 537.712 172.79 537.712 175.779V184.286C537.712 187.276 535.557 189.7 532.9 189.7H511.589C508.932 189.7 506.777 187.276 506.777 184.286V175.779Z" fill="#BABABA"/>
</g>
<g id="Rectangle 1_3">
<path d="M506.777 167.312C506.777 163.446 509.911 160.312 513.777 160.312H530.712C534.578 160.312 537.712 163.446 537.712 167.312V172.646C537.712 176.512 534.578 179.646 530.712 179.646H513.777C509.911 179.646 506.777 176.512 506.777 172.646V167.312Z" fill="#CDCDCD"/>
<path d="M506.777 165.726C506.777 162.736 508.932 160.312 511.589 160.312H532.9C535.557 160.312 537.712 162.736 537.712 165.726V174.233C537.712 177.222 535.557 179.646 532.9 179.646H511.589C508.932 179.646 506.777 177.222 506.777 174.233V165.726Z" fill="#CDCDCD"/>
</g>
</g>
<g id="KeyP">
<g id="Rectangle 2_4">
<path d="M468.109 177.366C468.109 173.5 471.243 170.366 475.109 170.366H492.044C495.91 170.366 499.044 173.5 499.044 177.366V182.7C499.044 186.566 495.91 189.7 492.044 189.7H475.109C471.243 189.7 468.109 186.566 468.109 182.7V177.366Z" fill="#BABABA"/>
<path d="M468.109 175.779C468.109 172.79 470.264 170.366 472.921 170.366H494.232C496.889 170.366 499.044 172.79 499.044 175.779V184.286C499.044 187.276 496.889 189.7 494.232 189.7H472.921C470.264 189.7 468.109 187.276 468.109 184.286V175.779Z" fill="#BABABA"/>
</g>
<g id="Rectangle 1_4">
<path d="M468.109 167.312C468.109 163.446 471.243 160.312 475.109 160.312H492.044C495.91 160.312 499.044 163.446 499.044 167.312V172.646C499.044 176.512 495.91 179.646 492.044 179.646H475.109C471.243 179.646 468.109 176.512 468.109 172.646V167.312Z" fill="#CDCDCD"/>
<path d="M468.109 165.726C468.109 162.736 470.264 160.312 472.921 160.312H494.232C496.889 160.312 499.044 162.736 499.044 165.726V174.233C499.044 177.222 496.889 179.646 494.232 179.646H472.921C470.264 179.646 468.109 177.222 468.109 174.233V165.726Z" fill="#CDCDCD"/>
</g>
</g>
<g id="KeyO">
<g id="Rectangle 2_5">
<path d="M429.441 177.366C429.441 173.5 432.575 170.366 436.441 170.366H453.376C457.242 170.366 460.376 173.5 460.376 177.366V182.7C460.376 186.566 457.242 189.7 453.376 189.7H436.441C432.575 189.7 429.441 186.566 429.441 182.7V177.366Z" fill="#BABABA"/>
<path d="M429.441 175.779C429.441 172.79 431.596 170.366 434.253 170.366H455.564C458.221 170.366 460.376 172.79 460.376 175.779V184.286C460.376 187.276 458.221 189.7 455.564 189.7H434.253C431.596 189.7 429.441 187.276 429.441 184.286V175.779Z" fill="#BABABA"/>
</g>
<g id="Rectangle 1_5">
<path d="M429.441 167.312C429.441 163.446 432.575 160.312 436.441 160.312H453.376C457.242 160.312 460.376 163.446 460.376 167.312V172.646C460.376 176.512 457.242 179.646 453.376 179.646H436.441C432.575 179.646 429.441 176.512 429.441 172.646V167.312Z" fill="#CDCDCD"/>
<path d="M429.441 165.726C429.441 162.736 431.596 160.312 434.253 160.312H455.564C458.221 160.312 460.376 162.736 460.376 165.726V174.233C460.376 177.222 458.221 179.646 455.564 179.646H434.253C431.596 179.646 429.441 177.222 429.441 174.233V165.726Z" fill="#CDCDCD"/>
</g>
</g>
<g id="KeyI">
<g id="Rectangle 2_6">
<path d="M390.773 177.366C390.773 173.5 393.907 170.366 397.773 170.366H414.708C418.574 170.366 421.708 173.5 421.708 177.366V182.7C421.708 186.566 418.574 189.7 414.708 189.7H397.773C393.907 189.7 390.773 186.566 390.773 182.7V177.366Z" fill="#BABABA"/>
<path d="M390.773 175.779C390.773 172.79 392.928 170.366 395.585 170.366H416.896C419.553 170.366 421.708 172.79 421.708 175.779V184.286C421.708 187.276 419.553 189.7 416.896 189.7H395.585C392.928 189.7 390.773 187.276 390.773 184.286V175.779Z" fill="#BABABA"/>
</g>
<g id="Rectangle 1_6">
<path d="M390.773 167.312C390.773 163.446 393.907 160.312 397.773 160.312H414.708C418.574 160.312 421.708 163.446 421.708 167.312V172.646C421.708 176.512 418.574 179.646 414.708 179.646H397.773C393.907 179.646 390.773 176.512 390.773 172.646V167.312Z" fill="#CDCDCD"/>
<path d="M390.773 165.726C390.773 162.736 392.928 160.312 395.585 160.312H416.896C419.553 160.312 421.708 162.736 421.708 165.726V174.233C421.708 177.222 419.553 179.646 416.896 179.646H395.585C392.928 179.646 390.773 177.222 390.773 174.233V165.726Z" fill="#CDCDCD"/>
</g>
</g>
<g id="KeyU">
<g id="Rectangle 2_7">
<path d="M352.105 177.366C352.105 173.5 355.239 170.366 359.105 170.366H376.04C379.906 170.366 383.04 173.5 383.04 177.366V182.7C383.04 186.566 379.906 189.7 376.04 189.7H359.105C355.239 189.7 352.105 186.566 352.105 182.7V177.366Z" fill="#BABABA"/>
<path d="M352.105 175.779C352.105 172.79 354.26 170.366 356.917 170.366H378.228C380.885 170.366 383.04 172.79 383.04 175.779V184.286C383.04 187.276 380.885 189.7 378.228 189.7H356.917C354.26 189.7 352.105 187.276 352.105 184.286V175.779Z" fill="#BABABA"/>
</g>
<g id="Rectangle 1_7">
<path d="M352.105 167.312C352.105 163.446 355.239 160.312 359.105 160.312H376.04C379.906 160.312 383.04 163.446 383.04 167.312V172.646C383.04 176.512 379.906 179.646 376.04 179.646H359.105C355.239 179.646 352.105 176.512 352.105 172.646V167.312Z" fill="#CDCDCD"/>
<path d="M352.105 165.726C352.105 162.736 354.26 160.312 356.917 160.312H378.228C380.885 160.312 383.04 162.736 383.04 165.726V174.233C383.04 177.222 380.885 179.646 378.228 179.646H356.917C354.26 179.646 352.105 177.222 352.105 174.233V165.726Z" fill="#CDCDCD"/>
</g>
</g>
<g id="KeyY">
<g id="Rectangle 2_8">
<path d="M313.437 177.366C313.437 173.5 316.571 170.366 320.437 170.366H337.372C341.238 170.366 344.372 173.5 344.372 177.366V182.7C344.372 186.566 341.238 189.7 337.372 189.7H320.437C316.571 189.7 313.437 186.566 313.437 182.7V177.366Z" fill="#BABABA"/>
<path d="M313.437 175.779C313.437 172.79 315.592 170.366 318.249 170.366H339.56C342.217 170.366 344.372 172.79 344.372 175.779V184.286C344.372 187.276 342.217 189.7 339.56 189.7H318.249C315.592 189.7 313.437 187.276 313.437 184.286V175.779Z" fill="#BABABA"/>
</g>
<g id="Rectangle 1_8">
<path d="M313.437 167.312C313.437 163.446 316.571 160.312 320.437 160.312H337.372C341.238 160.312 344.372 163.446 344.372 167.312V172.646C344.372 176.512 341.238 179.646 337.372 179.646H320.437C316.571 179.646 313.437 176.512 313.437 172.646V167.312Z" fill="#CDCDCD"/>
<path d="M313.437 165.726C313.437 162.736 315.592 160.312 318.249 160.312H339.56C342.217 160.312 344.372 162.736 344.372 165.726V174.233C344.372 177.222 342.217 179.646 339.56 179.646H318.249C315.592 179.646 313.437 177.222 313.437 174.233V165.726Z" fill="#CDCDCD"/>
</g>
</g>
<g id="KeyT">
<g id="Rectangle 2_9">
<path d="M274.769 178.366C274.769 174.5 277.903 171.366 281.769 171.366H298.704C302.57 171.366 305.704 174.5 305.704 178.366V183.7C305.704 187.566 302.57 190.7 298.704 190.7H281.769C277.903 190.7 274.769 187.566 274.769 183.7V178.366Z" fill="#BABABA"/>
<path d="M274.769 176.779C274.769 173.79 276.924 171.366 279.581 171.366H300.892C303.549 171.366 305.704 173.79 305.704 176.779V185.286C305.704 188.276 303.549 190.7 300.892 190.7H279.581C276.924 190.7 274.769 188.276 274.769 185.286V176.779Z" fill="#BABABA"/>
</g>
<g id="Rectangle 1_9">
<path d="M274.769 168.312C274.769 164.446 277.903 161.312 281.769 161.312H298.704C302.57 161.312 305.704 164.446 305.704 168.312V173.646C305.704 177.512 302.57 180.646 298.704 180.646H281.769C277.903 180.646 274.769 177.512 274.769 173.646V168.312Z" fill="#CDCDCD"/>
<path d="M274.769 166.726C274.769 163.736 276.924 161.312 279.581 161.312H300.892C303.549 161.312 305.704 163.736 305.704 166.726V175.233C305.704 178.222 303.549 180.646 300.892 180.646H279.581C276.924 180.646 274.769 178.222 274.769 175.233V166.726Z" fill="#CDCDCD"/>
</g>
</g>
<g id="KeyR">
<g id="Rectangle 2_10">
<path d="M236.101 176.592C236.101 172.726 239.235 169.592 243.101 169.592H260.036C263.902 169.592 267.036 172.726 267.036 176.592V181.926C267.036 185.792 263.902 188.926 260.036 188.926H243.101C239.235 188.926 236.101 185.792 236.101 181.926V176.592Z" fill="#BABABA"/>
<path d="M236.101 175.006C236.101 172.016 238.256 169.592 240.913 169.592H262.224C264.881 169.592 267.036 172.016 267.036 175.006V183.513C267.036 186.503 264.881 188.926 262.224 188.926H240.913C238.256 188.926 236.101 186.503 236.101 183.513V175.006Z" fill="#BABABA"/>
</g>
<g id="Rectangle 1_10">
<path d="M236.101 167.312C236.101 163.446 239.235 160.312 243.101 160.312H260.036C263.902 160.312 267.036 163.446 267.036 167.312V172.646C267.036 176.512 263.902 179.646 260.036 179.646H243.101C239.235 179.646 236.101 176.512 236.101 172.646V167.312Z" fill="#CDCDCD"/>
<path d="M236.101 165.726C236.101 162.736 238.256 160.312 240.913 160.312H262.224C264.881 160.312 267.036 162.736 267.036 165.726V174.233C267.036 177.222 264.881 179.646 262.224 179.646H240.913C238.256 179.646 236.101 177.222 236.101 174.233V165.726Z" fill="#CDCDCD"/>
</g>
</g>
<g id="KeyE">
<g id="Rectangle 2_11">
<path d="M197.433 176.592C197.433 172.726 200.567 169.592 204.433 169.592H221.368C225.234 169.592 228.368 172.726 228.368 176.592V181.926C228.368 185.792 225.234 188.926 221.368 188.926H204.433C200.567 188.926 197.433 185.792 197.433 181.926V176.592Z" fill="#BABABA"/>
<path d="M197.433 175.006C197.433 172.016 199.588 169.592 202.245 169.592H223.556C226.213 169.592 228.368 172.016 228.368 175.006V183.513C228.368 186.503 226.213 188.926 223.556 188.926H202.245C199.588 188.926 197.433 186.503 197.433 183.513V175.006Z" fill="#BABABA"/>
</g>
<g id="Rectangle 1_11">
<path d="M197.433 167.312C197.433 163.446 200.567 160.312 204.433 160.312H221.368C225.234 160.312 228.368 163.446 228.368 167.312V172.646C228.368 176.512 225.234 179.646 221.368 179.646H204.433C200.567 179.646 197.433 176.512 197.433 172.646V167.312Z" fill="#CDCDCD"/>
<path d="M197.433 165.726C197.433 162.736 199.588 160.312 202.245 160.312H223.556C226.213 160.312 228.368 162.736 228.368 165.726V174.233C228.368 177.222 226.213 179.646 223.556 179.646H202.245C199.588 179.646 197.433 177.222 197.433 174.233V165.726Z" fill="#CDCDCD"/>
</g>
</g>
<g id="KeyW">
<g id="Rectangle 2_12">
<path d="M158.765 176.592C158.765 172.726 161.899 169.592 165.765 169.592H182.7C186.566 169.592 189.7 172.726 189.7 176.592V181.926C189.7 185.792 186.566 188.926 182.7 188.926H165.765C161.899 188.926 158.765 185.792 158.765 181.926V176.592Z" fill="#BABABA"/>
<path d="M158.765 175.006C158.765 172.016 160.92 169.592 163.577 169.592H184.888C187.545 169.592 189.7 172.016 189.7 175.006V183.513C189.7 186.503 187.545 188.926 184.888 188.926H163.577C160.92 188.926 158.765 186.503 158.765 183.513V175.006Z" fill="#BABABA"/>
</g>
<g id="Rectangle 1_12">
<path d="M158.765 167.312C158.765 163.446 161.899 160.312 165.765 160.312H182.7C186.566 160.312 189.7 163.446 189.7 167.312V172.646C189.7 176.512 186.566 179.646 182.7 179.646H165.765C161.899 179.646 158.765 176.512 158.765 172.646V167.312Z" fill="#CDCDCD"/>
<path d="M158.765 165.726C158.765 162.736 160.92 160.312 163.577 160.312H184.888C187.545 160.312 189.7 162.736 189.7 165.726V174.233C189.7 177.222 187.545 179.646 184.888 179.646H163.577C160.92 179.646 158.765 177.222 158.765 174.233V165.726Z" fill="#CDCDCD"/>
</g>
</g>
<g id="KeyQ">
<g id="Rectangle 2_13">
<path d="M120.097 175.592C120.097 171.726 123.231 168.592 127.097 168.592H144.032C147.898 168.592 151.032 171.726 151.032 175.592V180.926C151.032 184.792 147.898 187.926 144.032 187.926H127.097C123.231 187.926 120.097 184.792 120.097 180.926V175.592Z" fill="#BABABA"/>
<path d="M120.097 174.006C120.097 171.016 122.252 168.592 124.909 168.592H146.22C148.877 168.592 151.032 171.016 151.032 174.006V182.513C151.032 185.503 148.877 187.926 146.22 187.926H124.909C122.252 187.926 120.097 185.503 120.097 182.513V174.006Z" fill="#BABABA"/>
</g>
<g id="Rectangle 1_13">
<path d="M120.097 166.312C120.097 162.446 123.231 159.312 127.097 159.312H144.032C147.898 159.312 151.032 162.446 151.032 166.312V171.646C151.032 175.512 147.898 178.646 144.032 178.646H127.097C123.231 178.646 120.097 175.512 120.097 171.646V166.312Z" fill="#CDCDCD"/>
<path d="M120.097 164.726C120.097 161.736 122.252 159.312 124.909 159.312H146.22C148.877 159.312 151.032 161.736 151.032 164.726V173.233C151.032 176.222 148.877 178.646 146.22 178.646H124.909C122.252 178.646 120.097 176.222 120.097 173.233V164.726Z" fill="#CDCDCD"/>
</g>
</g>
</g>
<g id="ASDFG">
<g id="Enter">
<g id="Rectangle 2_14">
<path d="M564.779 212.167C564.779 208.301 567.913 205.167 571.779 205.167H588.714C592.58 205.167 595.714 208.301 595.714 212.167V217.501C595.714 221.367 592.58 224.501 588.714 224.501H571.779C567.913 224.501 564.779 221.367 564.779 217.501V212.167Z" fill="#BABABA"/>
<path d="M564.779 210.581C564.779 207.591 566.934 205.167 569.591 205.167H590.902C593.559 205.167 595.714 207.591 595.714 210.581V219.087C595.714 222.077 593.559 224.501 590.902 224.501H569.591C566.934 224.501 564.779 222.077 564.779 219.087V210.581Z" fill="#BABABA"/>
</g>
<g id="Rectangle 1_14">
<path d="M564.779 202.113C564.779 198.247 567.913 195.113 571.779 195.113H588.714C592.58 195.113 595.714 198.247 595.714 202.113V207.447C595.714 211.313 592.58 214.447 588.714 214.447H571.779C567.913 214.447 564.779 211.313 564.779 207.447V202.113Z" fill="#CDCDCD"/>
<path d="M564.779 200.527C564.779 197.537 566.934 195.113 569.591 195.113H590.902C593.559 195.113 595.714 197.537 595.714 200.527V209.034C595.714 212.024 593.559 214.447 590.902 214.447H569.591C566.934 214.447 564.779 212.024 564.779 209.034V200.527Z" fill="#CDCDCD"/>
</g>
</g>
<g id="Quote">
<g id="Rectangle 2_15">
<path d="M526.111 212.167C526.111 208.301 529.245 205.167 533.111 205.167H550.046C553.912 205.167 557.046 208.301 557.046 212.167V217.501C557.046 221.367 553.912 224.501 550.046 224.501H533.111C529.245 224.501 526.111 221.367 526.111 217.501V212.167Z" fill="#BABABA"/>
<path d="M526.111 210.581C526.111 207.591 528.266 205.167 530.923 205.167H552.234C554.891 205.167 557.046 207.591 557.046 210.581V219.087C557.046 222.077 554.891 224.501 552.234 224.501H530.923C528.266 224.501 526.111 222.077 526.111 219.087V210.581Z" fill="#BABABA"/>
</g>
<g id="Rectangle 1_15">
<path d="M526.111 202.113C526.111 198.247 529.245 195.113 533.111 195.113H550.046C553.912 195.113 557.046 198.247 557.046 202.113V207.447C557.046 211.313 553.912 214.447 550.046 214.447H533.111C529.245 214.447 526.111 211.313 526.111 207.447V202.113Z" fill="#CDCDCD"/>
<path d="M526.111 200.527C526.111 197.537 528.266 195.113 530.923 195.113H552.234C554.891 195.113 557.046 197.537 557.046 200.527V209.034C557.046 212.024 554.891 214.447 552.234 214.447H530.923C528.266 214.447 526.111 212.024 526.111 209.034V200.527Z" fill="#CDCDCD"/>
</g>
</g>
<g id="Semicolon">
<g id="Rectangle 2_16">
<path d="M487.443 212.167C487.443 208.301 490.577 205.167 494.443 205.167H511.378C515.244 205.167 518.378 208.301 518.378 212.167V217.501C518.378 221.367 515.244 224.501 511.378 224.501H494.443C490.577 224.501 487.443 221.367 487.443 217.501V212.167Z" fill="#BABABA"/>
<path d="M487.443 210.581C487.443 207.591 489.598 205.167 492.255 205.167H513.566C516.223 205.167 518.378 207.591 518.378 210.581V219.087C518.378 222.077 516.223 224.501 513.566 224.501H492.255C489.598 224.501 487.443 222.077 487.443 219.087V210.581Z" fill="#BABABA"/>
</g>
<g id="Rectangle 1_16">
<path d="M487.443 202.113C487.443 198.247 490.577 195.113 494.443 195.113H511.378C515.244 195.113 518.378 198.247 518.378 202.113V207.447C518.378 211.313 515.244 214.447 511.378 214.447H494.443C490.577 214.447 487.443 211.313 487.443 207.447V202.113Z" fill="#CDCDCD"/>
<path d="M487.443 200.527C487.443 197.537 489.598 195.113 492.255 195.113H513.566C516.223 195.113 518.378 197.537 518.378 200.527V209.034C518.378 212.024 516.223 214.447 513.566 214.447H492.255C489.598 214.447 487.443 212.024 487.443 209.034V200.527Z" fill="#CDCDCD"/>
</g>
</g>
<g id="KeyL">
<g id="Rectangle 2_17">
<path d="M448.775 212.167C448.775 208.301 451.909 205.167 455.775 205.167H472.71C476.576 205.167 479.71 208.301 479.71 212.167V217.501C479.71 221.367 476.576 224.501 472.71 224.501H455.775C451.909 224.501 448.775 221.367 448.775 217.501V212.167Z" fill="#BABABA"/>
<path d="M448.775 210.581C448.775 207.591 450.93 205.167 453.587 205.167H474.898C477.555 205.167 479.71 207.591 479.71 210.581V219.087C479.71 222.077 477.555 224.501 474.898 224.501H453.587C450.93 224.501 448.775 222.077 448.775 219.087V210.581Z" fill="#BABABA"/>
</g>
<g id="Rectangle 1_17">
<path d="M448.775 202.113C448.775 198.247 451.909 195.113 455.775 195.113H472.71C476.576 195.113 479.71 198.247 479.71 202.113V207.447C479.71 211.313 476.576 214.447 472.71 214.447H455.775C451.909 214.447 448.775 211.313 448.775 207.447V202.113Z" fill="#CDCDCD"/>
<path d="M448.775 200.527C448.775 197.537 450.93 195.113 453.587 195.113H474.898C477.555 195.113 479.71 197.537 479.71 200.527V209.034C479.71 212.024 477.555 214.447 474.898 214.447H453.587C450.93 214.447 448.775 212.024 448.775 209.034V200.527Z" fill="#CDCDCD"/>
</g>
</g>
<g id="KeyK">
<g id="Rectangle 2_18">
<path d="M410.107 212.167C410.107 208.301 413.241 205.167 417.107 205.167H434.042C437.908 205.167 441.042 208.301 441.042 212.167V217.501C441.042 221.367 437.908 224.501 434.042 224.501H417.107C413.241 224.501 410.107 221.367 410.107 217.501V212.167Z" fill="#BABABA"/>
<path d="M410.107 210.581C410.107 207.591 412.262 205.167 414.919 205.167H436.23C438.887 205.167 441.042 207.591 441.042 210.581V219.087C441.042 222.077 438.887 224.501 436.23 224.501H414.919C412.262 224.501 410.107 222.077 410.107 219.087V210.581Z" fill="#BABABA"/>
</g>
<g id="Rectangle 1_18">
<path d="M410.107 202.113C410.107 198.247 413.241 195.113 417.107 195.113H434.042C437.908 195.113 441.042 198.247 441.042 202.113V207.447C441.042 211.313 437.908 214.447 434.042 214.447H417.107C413.241 214.447 410.107 211.313 410.107 207.447V202.113Z" fill="#CDCDCD"/>
<path d="M410.107 200.527C410.107 197.537 412.262 195.113 414.919 195.113H436.23C438.887 195.113 441.042 197.537 441.042 200.527V209.034C441.042 212.024 438.887 214.447 436.23 214.447H414.919C412.262 214.447 410.107 212.024 410.107 209.034V200.527Z" fill="#CDCDCD"/>
</g>
</g>
<g id="KeyJ">
<g id="Rectangle 2_19">
<path d="M371.439 212.167C371.439 208.301 374.573 205.167 378.439 205.167H395.374C399.24 205.167 402.374 208.301 402.374 212.167V217.501C402.374 221.367 399.24 224.501 395.374 224.501H378.439C374.573 224.501 371.439 221.367 371.439 217.501V212.167Z" fill="#BABABA"/>
<path d="M371.439 210.581C371.439 207.591 373.594 205.167 376.251 205.167H397.562C400.219 205.167 402.374 207.591 402.374 210.581V219.087C402.374 222.077 400.219 224.501 397.562 224.501H376.251C373.594 224.501 371.439 222.077 371.439 219.087V210.581Z" fill="#BABABA"/>
</g>
<g id="Rectangle 1_19">
<path d="M371.439 202.113C371.439 198.247 374.573 195.113 378.439 195.113H395.374C399.24 195.113 402.374 198.247 402.374 202.113V207.447C402.374 211.313 399.24 214.447 395.374 214.447H378.439C374.573 214.447 371.439 211.313 371.439 207.447V202.113Z" fill="#CDCDCD"/>
<path d="M371.439 200.527C371.439 197.537 373.594 195.113 376.251 195.113H397.562C400.219 195.113 402.374 197.537 402.374 200.527V209.034C402.374 212.024 400.219 214.447 397.562 214.447H376.251C373.594 214.447 371.439 212.024 371.439 209.034V200.527Z" fill="#CDCDCD"/>
</g>
</g>
<g id="KeyH">
<g id="Rectangle 2_20">
<path d="M332.771 212.167C332.771 208.301 335.905 205.167 339.771 205.167H356.706C360.572 205.167 363.706 208.301 363.706 212.167V217.501C363.706 221.367 360.572 224.501 356.706 224.501H339.771C335.905 224.501 332.771 221.367 332.771 217.501V212.167Z" fill="#BABABA"/>
<path d="M332.771 210.581C332.771 207.591 334.926 205.167 337.583 205.167H358.894C361.551 205.167 363.706 207.591 363.706 210.581V219.087C363.706 222.077 361.551 224.501 358.894 224.501H337.583C334.926 224.501 332.771 222.077 332.771 219.087V210.581Z" fill="#BABABA"/>
</g>
<g id="Rectangle 1_20">
<path d="M332.771 202.113C332.771 198.247 335.905 195.113 339.771 195.113H356.706C360.572 195.113 363.706 198.247 363.706 202.113V207.447C363.706 211.313 360.572 214.447 356.706 214.447H339.771C335.905 214.447 332.771 211.313 332.771 207.447V202.113Z" fill="#CDCDCD"/>
<path d="M332.771 200.527C332.771 197.537 334.926 195.113 337.583 195.113H358.894C361.551 195.113 363.706 197.537 363.706 200.527V209.034C363.706 212.024 361.551 214.447 358.894 214.447H337.583C334.926 214.447 332.771 212.024 332.771 209.034V200.527Z" fill="#CDCDCD"/>
</g>
</g>
<g id="KeyG">
<g id="Rectangle 2_21">
<path d="M294.103 212.167C294.103 208.301 297.237 205.167 301.103 205.167H318.038C321.904 205.167 325.038 208.301 325.038 212.167V217.501C325.038 221.367 321.904 224.501 318.038 224.501H301.103C297.237 224.501 294.103 221.367 294.103 217.501V212.167Z" fill="#BABABA"/>
<path d="M294.103 210.581C294.103 207.591 296.258 205.167 298.915 205.167H320.226C322.883 205.167 325.038 207.591 325.038 210.581V219.087C325.038 222.077 322.883 224.501 320.226 224.501H298.915C296.258 224.501 294.103 222.077 294.103 219.087V210.581Z" fill="#BABABA"/>
</g>
<g id="Rectangle 1_21">
<path d="M294.103 202.113C294.103 198.247 297.237 195.113 301.103 195.113H318.038C321.904 195.113 325.038 198.247 325.038 202.113V207.447C325.038 211.313 321.904 214.447 318.038 214.447H301.103C297.237 214.447 294.103 211.313 294.103 207.447V202.113Z" fill="#CDCDCD"/>
<path d="M294.103 200.527C294.103 197.537 296.258 195.113 298.915 195.113H320.226C322.883 195.113 325.038 197.537 325.038 200.527V209.034C325.038 212.024 322.883 214.447 320.226 214.447H298.915C296.258 214.447 294.103 212.024 294.103 209.034V200.527Z" fill="#CDCDCD"/>
</g>
</g>
<g id="KeyF">
<g id="Rectangle 2_22">
<path d="M255.435 211.394C255.435 207.528 258.569 204.394 262.435 204.394H279.37C283.236 204.394 286.37 207.528 286.37 211.394V216.728C286.37 220.594 283.236 223.728 279.37 223.728H262.435C258.569 223.728 255.435 220.594 255.435 216.728V211.394Z" fill="#BABABA"/>
<path d="M255.435 209.807C255.435 206.817 257.59 204.394 260.247 204.394H281.558C284.215 204.394 286.37 206.817 286.37 209.807V218.314C286.37 221.304 284.215 223.728 281.558 223.728H260.247C257.59 223.728 255.435 221.304 255.435 218.314V209.807Z" fill="#BABABA"/>
</g>
<g id="Rectangle 1_22">
<path d="M255.435 202.113C255.435 198.247 258.569 195.113 262.435 195.113H279.37C283.236 195.113 286.37 198.247 286.37 202.113V207.447C286.37 211.313 283.236 214.447 279.37 214.447H262.435C258.569 214.447 255.435 211.313 255.435 207.447V202.113Z" fill="#CDCDCD"/>
<path d="M255.435 200.527C255.435 197.537 257.59 195.113 260.247 195.113H281.558C284.215 195.113 286.37 197.537 286.37 200.527V209.034C286.37 212.024 284.215 214.447 281.558 214.447H260.247C257.59 214.447 255.435 212.024 255.435 209.034V200.527Z" fill="#CDCDCD"/>
</g>
</g>
<g id="KeyD">
<g id="Rectangle 2_23">
<path d="M216.767 211.394C216.767 207.528 219.901 204.394 223.767 204.394H240.702C244.568 204.394 247.702 207.528 247.702 211.394V216.728C247.702 220.594 244.568 223.728 240.702 223.728H223.767C219.901 223.728 216.767 220.594 216.767 216.728V211.394Z" fill="#BABABA"/>
<path d="M216.767 209.807C216.767 206.817 218.922 204.394 221.579 204.394H242.89C245.547 204.394 247.702 206.817 247.702 209.807V218.314C247.702 221.304 245.547 223.728 242.89 223.728H221.579C218.922 223.728 216.767 221.304 216.767 218.314V209.807Z" fill="#BABABA"/>
</g>
<g id="Rectangle 1_23">
<path d="M216.767 202.113C216.767 198.247 219.901 195.113 223.767 195.113H240.702C244.568 195.113 247.702 198.247 247.702 202.113V207.447C247.702 211.313 244.568 214.447 240.702 214.447H223.767C219.901 214.447 216.767 211.313 216.767 207.447V202.113Z" fill="#CDCDCD"/>
<path d="M216.767 200.527C216.767 197.537 218.922 195.113 221.579 195.113H242.89C245.547 195.113 247.702 197.537 247.702 200.527V209.034C247.702 212.024 245.547 214.447 242.89 214.447H221.579C218.922 214.447 216.767 212.024 216.767 209.034V200.527Z" fill="#CDCDCD"/>
</g>
</g>
<g id="KeyS">
<g id="Rectangle 2_24">
<path d="M178.099 211.394C178.099 207.528 181.233 204.394 185.099 204.394H202.034C205.9 204.394 209.034 207.528 209.034 211.394V216.728C209.034 220.594 205.9 223.728 202.034 223.728H185.099C181.233 223.728 178.099 220.594 178.099 216.728V211.394Z" fill="#BABABA"/>
<path d="M178.099 209.807C178.099 206.817 180.254 204.394 182.911 204.394H204.222C206.879 204.394 209.034 206.817 209.034 209.807V218.314C209.034 221.304 206.879 223.728 204.222 223.728H182.911C180.254 223.728 178.099 221.304 178.099 218.314V209.807Z" fill="#BABABA"/>
</g>
<g id="Rectangle 1_24">
<path d="M178.099 202.113C178.099 198.247 181.233 195.113 185.099 195.113H202.034C205.9 195.113 209.034 198.247 209.034 202.113V207.447C209.034 211.313 205.9 214.447 202.034 214.447H185.099C181.233 214.447 178.099 211.313 178.099 207.447V202.113Z" fill="#CDCDCD"/>
<path d="M178.099 200.527C178.099 197.537 180.254 195.113 182.911 195.113H204.222C206.879 195.113 209.034 197.537 209.034 200.527V209.034C209.034 212.024 206.879 214.447 204.222 214.447H182.911C180.254 214.447 178.099 212.024 178.099 209.034V200.527Z" fill="#CDCDCD"/>
</g>
</g>
<g id="KeyA">
<g id="Rectangle 2_25">
<path d="M139.431 211.394C139.431 207.528 142.565 204.394 146.431 204.394H163.366C167.232 204.394 170.366 207.528 170.366 211.394V216.728C170.366 220.594 167.232 223.728 163.366 223.728H146.431C142.565 223.728 139.431 220.594 139.431 216.728V211.394Z" fill="#BABABA"/>
<path d="M139.431 209.807C139.431 206.817 141.586 204.394 144.243 204.394H165.554C168.211 204.394 170.366 206.817 170.366 209.807V218.314C170.366 221.304 168.211 223.728 165.554 223.728H144.243C141.586 223.728 139.431 221.304 139.431 218.314V209.807Z" fill="#BABABA"/>
</g>
<g id="Rectangle 1_25">
<path d="M139.431 202.113C139.431 198.247 142.565 195.113 146.431 195.113H163.366C167.232 195.113 170.366 198.247 170.366 202.113V207.447C170.366 211.313 167.232 214.447 163.366 214.447H146.431C142.565 214.447 139.431 211.313 139.431 207.447V202.113Z" fill="#CDCDCD"/>
<path d="M139.431 200.527C139.431 197.537 141.586 195.113 144.243 195.113H165.554C168.211 195.113 170.366 197.537 170.366 200.527V209.034C170.366 212.024 168.211 214.447 165.554 214.447H144.243C141.586 214.447 139.431 212.024 139.431 209.034V200.527Z" fill="#CDCDCD"/>
</g>
</g>
</g>
<g id="ZXCVB">
<g id="BonusKey">
<g id="Rectangle 2_26">
<path d="M564.779 250.835C564.779 246.969 567.913 243.835 571.779 243.835H588.714C592.58 243.835 595.714 246.969 595.714 250.835V256.169C595.714 260.035 592.58 263.169 588.714 263.169H571.779C567.913 263.169 564.779 260.035 564.779 256.169V250.835Z" fill="#BABABA"/>
<path d="M564.779 249.249C564.779 246.259 566.934 243.835 569.591 243.835H590.902C593.559 243.835 595.714 246.259 595.714 249.249V257.755C595.714 260.745 593.559 263.169 590.902 263.169H569.591C566.934 263.169 564.779 260.745 564.779 257.755V249.249Z" fill="#BABABA"/>
</g>
<g id="Rectangle 1_26">
<path d="M564.779 240.781C564.779 236.915 567.913 233.781 571.779 233.781H588.714C592.58 233.781 595.714 236.915 595.714 240.781V246.115C595.714 249.981 592.58 253.115 588.714 253.115H571.779C567.913 253.115 564.779 249.981 564.779 246.115V240.781Z" fill="#CDCDCD"/>
<path d="M564.779 239.195C564.779 236.205 566.934 233.781 569.591 233.781H590.902C593.559 233.781 595.714 236.205 595.714 239.195V247.702C595.714 250.692 593.559 253.115 590.902 253.115H569.591C566.934 253.115 564.779 250.692 564.779 247.702V239.195Z" fill="#CDCDCD"/>
</g>
</g>
<g id="ShiftRight">
<g id="Rectangle 2_27">
<path d="M526.111 250.835C526.111 246.969 529.245 243.835 533.111 243.835H550.046C553.912 243.835 557.046 246.969 557.046 250.835V256.169C557.046 260.035 553.912 263.169 550.046 263.169H533.111C529.245 263.169 526.111 260.035 526.111 256.169V250.835Z" fill="#BABABA"/>
<path d="M526.111 249.249C526.111 246.259 528.266 243.835 530.923 243.835H552.234C554.891 243.835 557.046 246.259 557.046 249.249V257.755C557.046 260.745 554.891 263.169 552.234 263.169H530.923C528.266 263.169 526.111 260.745 526.111 257.755V249.249Z" fill="#BABABA"/>
</g>
<g id="Rectangle 1_27">
<path d="M526.111 240.781C526.111 236.915 529.245 233.781 533.111 233.781H550.046C553.912 233.781 557.046 236.915 557.046 240.781V246.115C557.046 249.981 553.912 253.115 550.046 253.115H533.111C529.245 253.115 526.111 249.981 526.111 246.115V240.781Z" fill="#CDCDCD"/>
<path d="M526.111 239.195C526.111 236.205 528.266 233.781 530.923 233.781H552.234C554.891 233.781 557.046 236.205 557.046 239.195V247.702C557.046 250.692 554.891 253.115 552.234 253.115H530.923C528.266 253.115 526.111 250.692 526.111 247.702V239.195Z" fill="#CDCDCD"/>
</g>
</g>
<g id="Slash">
<g id="Rectangle 2_28">
<path d="M487.443 250.835C487.443 246.969 490.577 243.835 494.443 243.835H511.378C515.244 243.835 518.378 246.969 518.378 250.835V256.169C518.378 260.035 515.244 263.169 511.378 263.169H494.443C490.577 263.169 487.443 260.035 487.443 256.169V250.835Z" fill="#BABABA"/>
<path d="M487.443 249.249C487.443 246.259 489.598 243.835 492.255 243.835H513.566C516.223 243.835 518.378 246.259 518.378 249.249V257.755C518.378 260.745 516.223 263.169 513.566 263.169H492.255C489.598 263.169 487.443 260.745 487.443 257.755V249.249Z" fill="#BABABA"/>
</g>
<g id="Rectangle 1_28">
<path d="M487.443 240.781C487.443 236.915 490.577 233.781 494.443 233.781H511.378C515.244 233.781 518.378 236.915 518.378 240.781V246.115C518.378 249.981 515.244 253.115 511.378 253.115H494.443C490.577 253.115 487.443 249.981 487.443 246.115V240.781Z" fill="#CDCDCD"/>
<path d="M487.443 239.195C487.443 236.205 489.598 233.781 492.255 233.781H513.566C516.223 233.781 518.378 236.205 518.378 239.195V247.702C518.378 250.692 516.223 253.115 513.566 253.115H492.255C489.598 253.115 487.443 250.692 487.443 247.702V239.195Z" fill="#CDCDCD"/>
</g>
</g>
<g id="Period">
<g id="Rectangle 2_29">
<path d="M448.775 250.835C448.775 246.969 451.909 243.835 455.775 243.835H472.71C476.576 243.835 479.71 246.969 479.71 250.835V256.169C479.71 260.035 476.576 263.169 472.71 263.169H455.775C451.909 263.169 448.775 260.035 448.775 256.169V250.835Z" fill="#BABABA"/>
<path d="M448.775 249.249C448.775 246.259 450.93 243.835 453.587 243.835H474.898C477.555 243.835 479.71 246.259 479.71 249.249V257.755C479.71 260.745 477.555 263.169 474.898 263.169H453.587C450.93 263.169 448.775 260.745 448.775 257.755V249.249Z" fill="#BABABA"/>
</g>
<g id="Rectangle 1_29">
<path d="M448.775 240.781C448.775 236.915 451.909 233.781 455.775 233.781H472.71C476.576 233.781 479.71 236.915 479.71 240.781V246.115C479.71 249.981 476.576 253.115 472.71 253.115H455.775C451.909 253.115 448.775 249.981 448.775 246.115V240.781Z" fill="#CDCDCD"/>
<path d="M448.775 239.195C448.775 236.205 450.93 233.781 453.587 233.781H474.898C477.555 233.781 479.71 236.205 479.71 239.195V247.702C479.71 250.692 477.555 253.115 474.898 253.115H453.587C450.93 253.115 448.775 250.692 448.775 247.702V239.195Z" fill="#CDCDCD"/>
</g>
</g>
<g id="Comma">
<g id="Rectangle 2_30">
<path d="M410.107 250.835C410.107 246.969 413.241 243.835 417.107 243.835H434.042C437.908 243.835 441.042 246.969 441.042 250.835V256.169C441.042 260.035 437.908 263.169 434.042 263.169H417.107C413.241 263.169 410.107 260.035 410.107 256.169V250.835Z" fill="#BABABA"/>
<path d="M410.107 249.249C410.107 246.259 412.262 243.835 414.919 243.835H436.23C438.887 243.835 441.042 246.259 441.042 249.249V257.755C441.042 260.745 438.887 263.169 436.23 263.169H414.919C412.262 263.169 410.107 260.745 410.107 257.755V249.249Z" fill="#BABABA"/>
</g>
<g id="Rectangle 1_30">
<path d="M410.107 240.781C410.107 236.915 413.241 233.781 417.107 233.781H434.042C437.908 233.781 441.042 236.915 441.042 240.781V246.115C441.042 249.981 437.908 253.115 434.042 253.115H417.107C413.241 253.115 410.107 249.981 410.107 246.115V240.781Z" fill="#CDCDCD"/>
<path d="M410.107 239.195C410.107 236.205 412.262 233.781 414.919 233.781H436.23C438.887 233.781 441.042 236.205 441.042 239.195V247.702C441.042 250.692 438.887 253.115 436.23 253.115H414.919C412.262 253.115 410.107 250.692 410.107 247.702V239.195Z" fill="#CDCDCD"/>
</g>
</g>
<g id="KeyM">
<g id="Rectangle 2_31">
<path d="M371.439 250.835C371.439 246.969 374.573 243.835 378.439 243.835H395.374C399.24 243.835 402.374 246.969 402.374 250.835V256.169C402.374 260.035 399.24 263.169 395.374 263.169H378.439C374.573 263.169 371.439 260.035 371.439 256.169V250.835Z" fill="#BABABA"/>
<path d="M371.439 249.249C371.439 246.259 373.594 243.835 376.251 243.835H397.562C400.219 243.835 402.374 246.259 402.374 249.249V257.755C402.374 260.745 400.219 263.169 397.562 263.169H376.251C373.594 263.169 371.439 260.745 371.439 257.755V249.249Z" fill="#BABABA"/>
</g>
<g id="Rectangle 1_31">
<path d="M371.439 240.781C371.439 236.915 374.573 233.781 378.439 233.781H395.374C399.24 233.781 402.374 236.915 402.374 240.781V246.115C402.374 249.981 399.24 253.115 395.374 253.115H378.439C374.573 253.115 371.439 249.981 371.439 246.115V240.781Z" fill="#CDCDCD"/>
<path d="M371.439 239.195C371.439 236.205 373.594 233.781 376.251 233.781H397.562C400.219 233.781 402.374 236.205 402.374 239.195V247.702C402.374 250.692 400.219 253.115 397.562 253.115H376.251C373.594 253.115 371.439 250.692 371.439 247.702V239.195Z" fill="#CDCDCD"/>
</g>
</g>
<g id="KeyN">
<g id="Rectangle 2_32">
<path d="M332.771 250.835C332.771 246.969 335.905 243.835 339.771 243.835H356.706C360.572 243.835 363.706 246.969 363.706 250.835V256.169C363.706 260.035 360.572 263.169 356.706 263.169H339.771C335.905 263.169 332.771 260.035 332.771 256.169V250.835Z" fill="#BABABA"/>
<path d="M332.771 249.249C332.771 246.259 334.926 243.835 337.583 243.835H358.894C361.551 243.835 363.706 246.259 363.706 249.249V257.755C363.706 260.745 361.551 263.169 358.894 263.169H337.583C334.926 263.169 332.771 260.745 332.771 257.755V249.249Z" fill="#BABABA"/>
</g>
<g id="Rectangle 1_32">
<path d="M332.771 240.781C332.771 236.915 335.905 233.781 339.771 233.781H356.706C360.572 233.781 363.706 236.915 363.706 240.781V246.115C363.706 249.981 360.572 253.115 356.706 253.115H339.771C335.905 253.115 332.771 249.981 332.771 246.115V240.781Z" fill="#CDCDCD"/>
<path d="M332.771 239.195C332.771 236.205 334.926 233.781 337.583 233.781H358.894C361.551 233.781 363.706 236.205 363.706 239.195V247.702C363.706 250.692 361.551 253.115 358.894 253.115H337.583C334.926 253.115 332.771 250.692 332.771 247.702V239.195Z" fill="#CDCDCD"/>
</g>
</g>
<g id="KeyB">
<g id="Rectangle 2_33">
<path d="M294.103 250.835C294.103 246.969 297.237 243.835 301.103 243.835H318.038C321.904 243.835 325.038 246.969 325.038 250.835V256.169C325.038 260.035 321.904 263.169 318.038 263.169H301.103C297.237 263.169 294.103 260.035 294.103 256.169V250.835Z" fill="#BABABA"/>
<path d="M294.103 249.249C294.103 246.259 296.258 243.835 298.915 243.835H320.226C322.883 243.835 325.038 246.259 325.038 249.249V257.755C325.038 260.745 322.883 263.169 320.226 263.169H298.915C296.258 263.169 294.103 260.745 294.103 257.755V249.249Z" fill="#BABABA"/>
</g>
<g id="Rectangle 1_33">
<path d="M294.103 240.781C294.103 236.915 297.237 233.781 301.103 233.781H318.038C321.904 233.781 325.038 236.915 325.038 240.781V246.115C325.038 249.981 321.904 253.115 318.038 253.115H301.103C297.237 253.115 294.103 249.981 294.103 246.115V240.781Z" fill="#CDCDCD"/>
<path d="M294.103 239.195C294.103 236.205 296.258 233.781 298.915 233.781H320.226C322.883 233.781 325.038 236.205 325.038 239.195V247.702C325.038 250.692 322.883 253.115 320.226 253.115H298.915C296.258 253.115 294.103 250.692 294.103 247.702V239.195Z" fill="#CDCDCD"/>
</g>
</g>
<g id="KeyV">
<g id="Rectangle 2_34">
<path d="M255.435 250.062C255.435 246.196 258.569 243.062 262.435 243.062H279.37C283.236 243.062 286.37 246.196 286.37 250.062V255.396C286.37 259.262 283.236 262.396 279.37 262.396H262.435C258.569 262.396 255.435 259.262 255.435 255.396V250.062Z" fill="#BABABA"/>
<path d="M255.435 248.475C255.435 245.485 257.59 243.062 260.247 243.062H281.558C284.215 243.062 286.37 245.485 286.37 248.475V256.982C286.37 259.972 284.215 262.396 281.558 262.396H260.247C257.59 262.396 255.435 259.972 255.435 256.982V248.475Z" fill="#BABABA"/>
</g>
<g id="Rectangle 1_34">
<path d="M255.435 240.781C255.435 236.915 258.569 233.781 262.435 233.781H279.37C283.236 233.781 286.37 236.915 286.37 240.781V246.115C286.37 249.981 283.236 253.115 279.37 253.115H262.435C258.569 253.115 255.435 249.981 255.435 246.115V240.781Z" fill="#CDCDCD"/>
<path d="M255.435 239.195C255.435 236.205 257.59 233.781 260.247 233.781H281.558C284.215 233.781 286.37 236.205 286.37 239.195V247.702C286.37 250.692 284.215 253.115 281.558 253.115H260.247C257.59 253.115 255.435 250.692 255.435 247.702V239.195Z" fill="#CDCDCD"/>
</g>
</g>
<g id="KeyC">
<g id="Rectangle 2_35">
<path d="M216.767 250.062C216.767 246.196 219.901 243.062 223.767 243.062H240.702C244.568 243.062 247.702 246.196 247.702 250.062V255.396C247.702 259.262 244.568 262.396 240.702 262.396H223.767C219.901 262.396 216.767 259.262 216.767 255.396V250.062Z" fill="#BABABA"/>
<path d="M216.767 248.475C216.767 245.485 218.922 243.062 221.579 243.062H242.89C245.547 243.062 247.702 245.485 247.702 248.475V256.982C247.702 259.972 245.547 262.396 242.89 262.396H221.579C218.922 262.396 216.767 259.972 216.767 256.982V248.475Z" fill="#BABABA"/>
</g>
<g id="Rectangle 1_35">
<path d="M216.767 240.781C216.767 236.915 219.901 233.781 223.767 233.781H240.702C244.568 233.781 247.702 236.915 247.702 240.781V246.115C247.702 249.981 244.568 253.115 240.702 253.115H223.767C219.901 253.115 216.767 249.981 216.767 246.115V240.781Z" fill="#CDCDCD"/>
<path d="M216.767 239.195C216.767 236.205 218.922 233.781 221.579 233.781H242.89C245.547 233.781 247.702 236.205 247.702 239.195V247.702C247.702 250.692 245.547 253.115 242.89 253.115H221.579C218.922 253.115 216.767 250.692 216.767 247.702V239.195Z" fill="#CDCDCD"/>
</g>
</g>
<g id="KeyX">
<g id="Rectangle 2_36">
<path d="M178.099 250.062C178.099 246.196 181.233 243.062 185.099 243.062H202.034C205.9 243.062 209.034 246.196 209.034 250.062V255.396C209.034 259.262 205.9 262.396 202.034 262.396H185.099C181.233 262.396 178.099 259.262 178.099 255.396V250.062Z" fill="#BABABA"/>
<path d="M178.099 248.475C178.099 245.485 180.254 243.062 182.911 243.062H204.222C206.879 243.062 209.034 245.485 209.034 248.475V256.982C209.034 259.972 206.879 262.396 204.222 262.396H182.911C180.254 262.396 178.099 259.972 178.099 256.982V248.475Z" fill="#BABABA"/>
</g>
<g id="Rectangle 1_36">
<path d="M178.099 240.781C178.099 236.915 181.233 233.781 185.099 233.781H202.034C205.9 233.781 209.034 236.915 209.034 240.781V246.115C209.034 249.981 205.9 253.115 202.034 253.115H185.099C181.233 253.115 178.099 249.981 178.099 246.115V240.781Z" fill="#CDCDCD"/>
<path d="M178.099 239.195C178.099 236.205 180.254 233.781 182.911 233.781H204.222C206.879 233.781 209.034 236.205 209.034 239.195V247.702C209.034 250.692 206.879 253.115 204.222 253.115H182.911C180.254 253.115 178.099 250.692 178.099 247.702V239.195Z" fill="#CDCDCD"/>
</g>
</g>
<g id="KeyZ">
<g id="Rectangle 2_37">
<path d="M139.431 250.062C139.431 246.196 142.565 243.062 146.431 243.062H163.366C167.232 243.062 170.366 246.196 170.366 250.062V255.396C170.366 259.262 167.232 262.396 163.366 262.396H146.431C142.565 262.396 139.431 259.262 139.431 255.396V250.062Z" fill="#BABABA"/>
<path d="M139.431 248.475C139.431 245.485 141.586 243.062 144.243 243.062H165.554C168.211 243.062 170.366 245.485 170.366 248.475V256.982C170.366 259.972 168.211 262.396 165.554 262.396H144.243C141.586 262.396 139.431 259.972 139.431 256.982V248.475Z" fill="#BABABA"/>
</g>
<g id="Rectangle 1_37">
<path d="M139.431 240.781C139.431 236.915 142.565 233.781 146.431 233.781H163.366C167.232 233.781 170.366 236.915 170.366 240.781V246.115C170.366 249.981 167.232 253.115 163.366 253.115H146.431C142.565 253.115 139.431 249.981 139.431 246.115V240.781Z" fill="#CDCDCD"/>
<path d="M139.431 239.195C139.431 236.205 141.586 233.781 144.243 233.781H165.554C168.211 233.781 170.366 236.205 170.366 239.195V247.702C170.366 250.692 168.211 253.115 165.554 253.115H144.243C141.586 253.115 139.431 250.692 139.431 247.702V239.195Z" fill="#CDCDCD"/>
</g>
</g>
</g>
<g id="SpacebarKey">
<g id="Rectangle 2_38">
<path d="M178.099 288.73C178.099 284.864 181.233 281.73 185.099 281.73H550.046C553.912 281.73 557.046 284.864 557.046 288.73V294.064C557.046 297.93 553.912 301.064 550.046 301.064H185.099C181.233 301.064 178.099 297.93 178.099 294.064V288.73Z" fill="#BABABA"/>
<path d="M178.099 287.143C178.099 284.153 204.491 281.73 237.047 281.73H498.099C530.654 281.73 557.046 284.153 557.046 287.143V295.65C557.046 298.64 530.654 301.064 498.099 301.064H237.047C204.491 301.064 178.099 298.64 178.099 295.65V287.143Z" fill="#BABABA"/>
</g>
<g id="Rectangle 1_38">
<path d="M178.099 279.449C178.099 275.583 181.233 272.449 185.099 272.449H550.046C553.912 272.449 557.046 275.583 557.046 279.449V284.783C557.046 288.649 553.912 291.783 550.046 291.783H185.099C181.233 291.783 178.099 288.649 178.099 284.783V279.449Z" fill="#CDCDCD"/>
<path d="M178.099 277.863C178.099 274.873 204.491 272.449 237.047 272.449H498.099C530.654 272.449 557.046 274.873 557.046 277.863V286.37C557.046 289.36 530.654 291.783 498.099 291.783H237.047C204.491 291.783 178.099 289.36 178.099 286.37V277.863Z" fill="#CDCDCD"/>
</g>
</g>
<g id="Rectangle 25">
<rect x="71" y="25" width="30" height="32" rx="10" fill="#363636"/>
<rect x="71" y="25" width="30" height="32" rx="10" fill="#363636"/>
<rect x="71" y="25" width="30" height="32" rx="10" fill="#363636"/>
</g>
<g id="Rectangle 26">
<rect x="631" y="25" width="30" height="32" rx="10" fill="#363636"/>
<rect x="631" y="25" width="30" height="32" rx="10" fill="#363636"/>
<rect x="631" y="25" width="30" height="32" rx="10" fill="#363636"/>
</g>
<path id="Vector 4" d="M87.3333 1L112 12.4286H87.3333L1 61L87.3333 1Z" fill="#C4C4C4" stroke="#C4C4C4"/>
<rect id="Rectangle 8" x="49" y="296" width="121" height="62" rx="31" fill="#FF4040"/>
<rect id="Rectangle 9" x="565" y="296" width="114" height="62" rx="31" fill="#FF4040"/>
<rect id="Rectangle 21" x="89" y="1" width="31" height="63" rx="5" fill="#C4C4C4"/>
<rect id="Rectangle 22" x="608" y="1" width="31" height="63" rx="5" fill="#C4C4C4"/>
<rect id="Rectangle 23" x="91" y="10" width="28" height="15" rx="5" fill="#F8F0F0"/>
<rect id="Rectangle 24" x="610" y="10" width="27" height="15" rx="5" fill="#F8F0F0"/>
<rect id="Rectangle 6" x="78" y="375" width="571" height="14" fill="#CDCDCD"/>
<path id="Vector 1" d="M678 361C676.902 370.115 649 375.881 649 375.881V388.948C671.122 389.807 677.986 380.105 678 361Z" fill="#CDCDCD" stroke="#CDCDCD"/>
<path id="Vector 2" d="M49 361C50.0979 370.115 78 375.881 78 375.881V388.948C55.8775 389.807 49.0143 380.105 49 361Z" fill="#CDCDCD" stroke="#CDCDCD"/>
<rect id="Rectangle 7" x="82" y="344" width="597" height="46" rx="23" fill="black" fill-opacity="0.1"/>
<g id="Group 1">
<path id="Rectangle 10" d="M117.617 45.0815H499.044V129.378H96.8966L117.617 45.0815Z" fill="#FF4040"/>
<path id="Rectangle 13" d="M609.795 45.0815H228.368V129.378H630.515L609.795 45.0815Z" fill="#FF4040"/>
</g>
<rect id="Rectangle 11" x="94" y="119" width="539" height="10" fill="#CDCDCD"/>
<rect id="Rectangle 12" x="91" y="126" width="548" height="5" fill="#BABABA"/>
<path id="Polygon 1" d="M367.5 102L464.928 42H270.072L367.5 102Z" fill="#363636"/>
<rect id="Rectangle 16" x="120" y="47" width="158" height="7" rx="3.5" fill="#FF8D8D"/>
<rect id="Rectangle 18" x="171" y="334" width="394" height="6" rx="3" fill="#FF8D8D"/>
<rect id="Rectangle 19" x="586" y="299" width="63" height="5" rx="2.5" fill="#FF8D8D"/>
<rect id="Rectangle 20" x="86" y="299" width="63" height="5" rx="2.5" fill="#FF8D8D"/>
<rect id="Rectangle 17" x="457" y="47" width="149" height="7" rx="3.5" fill="#FF8D8D"/>
<path id="Vector 3" d="M367.419 103.742L276 48V53.4194L367.419 108L460 53.4194V48L367.419 103.742Z" fill="#FF8D8D" stroke="#FF8D8D"/>
</svg>
